<svg width="192" height="23" viewBox="0 0 192 23" fill="none" xmlns="http://www.w3.org/2000/svg">
<path d="M19.3944 20.9616C18.3018 21.5904 16.9765 22.0873 15.4184 22.4524C13.8604 22.8175 12.2417 23 10.5622 23C8.29601 23 6.36364 22.7262 4.76514 22.1786C3.18688 21.631 1.99306 20.8704 1.1837 19.8968C0.394566 18.9233 0 17.7976 0 16.5198C0 15.4043 0.303512 14.4206 0.910537 13.5688C1.51756 12.7169 2.35728 12.0578 3.42969 11.5913C2.60009 11.1653 1.96271 10.5772 1.51756 9.82672C1.09264 9.056 0.880186 8.21429 0.880186 7.30159C0.880186 6.12522 1.2444 5.05026 1.97283 4.07672C2.72149 3.10317 3.85461 2.32231 5.37217 1.73413C6.88973 1.14594 8.76139 0.851852 10.9871 0.851852C12.3833 0.851852 13.7592 0.983686 15.1149 1.24736C16.4706 1.51102 17.6644 1.86596 18.6964 2.31217L17.0574 6.81482C15.1756 5.98325 13.2331 5.56746 11.23 5.56746C9.79333 5.56746 8.72092 5.76014 8.01273 6.1455C7.30453 6.51058 6.95043 7.02778 6.95043 7.69709C6.95043 8.91402 7.83062 9.52249 9.59099 9.52249H15.6005V14.1164H9.19642C8.16448 14.1164 7.38547 14.2888 6.85938 14.6336C6.33329 14.9581 6.07025 15.4449 6.07025 16.0939C6.07025 16.7835 6.4547 17.321 7.22359 17.7063C7.99249 18.0917 9.18631 18.2844 10.805 18.2844C11.9584 18.2844 13.1421 18.1323 14.3561 17.828C15.5904 17.5035 16.6628 17.0675 17.5734 16.5198L19.3944 20.9616Z" fill="white"/>
<path d="M32.2228 5.81085C34.2665 5.81085 35.9054 6.41931 37.1397 7.63624C38.3942 8.85318 39.0215 10.6887 39.0215 13.1429V22.5741H33.2548V14.086C33.2548 11.8347 32.3543 10.709 30.5535 10.709C29.562 10.709 28.7628 11.0335 28.1558 11.6825C27.569 12.3316 27.2756 13.3051 27.2756 14.6032V22.5741H21.5088V6.08465H27.0024V7.87963C27.6499 7.21032 28.4188 6.70326 29.3091 6.35847C30.1994 5.99339 31.1706 5.81085 32.2228 5.81085Z" fill="white"/>
<path d="M49.6532 5.81085C52.3848 5.81085 54.4689 6.4396 55.9055 7.69709C57.3422 8.9343 58.0605 10.8408 58.0605 13.4167V22.5741H52.6883V20.4444C51.8587 22.0467 50.24 22.8479 47.8321 22.8479C46.5574 22.8479 45.4546 22.6248 44.5238 22.1786C43.5931 21.7324 42.8849 21.134 42.3993 20.3836C41.9339 19.6129 41.7012 18.7407 41.7012 17.7672C41.7012 16.2055 42.2981 14.9987 43.4919 14.1468C44.6857 13.2747 46.527 12.8386 49.0158 12.8386H52.2938C52.1926 11.0944 51.0291 10.2222 48.8034 10.2222C48.0142 10.2222 47.215 10.3541 46.4056 10.6177C45.5962 10.8611 44.9083 11.2059 44.3417 11.6521L42.3993 7.72751C43.3098 7.11905 44.4126 6.65256 45.7075 6.32804C47.0228 5.98325 48.338 5.81085 49.6532 5.81085ZM49.4407 19.1971C50.1085 19.1971 50.6953 19.0348 51.2011 18.7103C51.707 18.3858 52.0712 17.9092 52.2938 17.2804V15.8505H49.805C48.1255 15.8505 47.2858 16.4083 47.2858 17.5238C47.2858 18.0309 47.478 18.4365 47.8625 18.7407C48.2469 19.045 48.773 19.1971 49.4407 19.1971Z" fill="white"/>
<path d="M76.0263 18.254V22.5741H60.8507V19.1667L68.4688 10.3743H61.0631V6.08465H75.7228V9.46164L68.1046 18.254H76.0263Z" fill="white"/>
<path d="M85.5767 5.81085C88.3083 5.81085 90.3924 6.4396 91.8291 7.69709C93.2657 8.9343 93.984 10.8408 93.984 13.4167V22.5741H88.6118V20.4444C87.7822 22.0467 86.1635 22.8479 83.7556 22.8479C82.4809 22.8479 81.3781 22.6248 80.4474 22.1786C79.5166 21.7324 78.8084 21.134 78.3228 20.3836C77.8574 19.6129 77.6247 18.7407 77.6247 17.7672C77.6247 16.2055 78.2216 14.9987 79.4154 14.1468C80.6092 13.2747 82.4506 12.8386 84.9394 12.8386H88.2173C88.1161 11.0944 86.9526 10.2222 84.7269 10.2222C83.9378 10.2222 83.1385 10.3541 82.3291 10.6177C81.5198 10.8611 80.8318 11.2059 80.2653 11.6521L78.3228 7.72751C79.2333 7.11905 80.3361 6.65256 81.6311 6.32804C82.9463 5.98325 84.2615 5.81085 85.5767 5.81085ZM85.3643 19.1971C86.032 19.1971 86.6188 19.0348 87.1246 18.7103C87.6305 18.3858 87.9947 17.9092 88.2173 17.2804V15.8505H85.7285C84.049 15.8505 83.2093 16.4083 83.2093 17.5238C83.2093 18.0309 83.4016 18.4365 83.786 18.7407C84.1704 19.045 84.6965 19.1971 85.3643 19.1971Z" fill="white"/>
<path d="M129.241 1.27778V22.5741H127.087V5.53704L118.74 19.8664H117.678L109.331 5.62831V22.5741H107.176V1.27778H109.028L118.254 17.0675L127.39 1.27778H129.241Z" fill="white"/>
<path d="M150.095 6.57143V22.5741H148.031V19.6534C147.465 20.627 146.686 21.3876 145.694 21.9352C144.703 22.4625 143.57 22.7262 142.295 22.7262C140.211 22.7262 138.562 22.1481 137.348 20.9921C136.154 19.8157 135.557 18.1019 135.557 15.8505V6.57143H137.712V15.6376C137.712 17.321 138.127 18.5988 138.956 19.4709C139.786 20.343 140.97 20.7791 142.507 20.7791C144.187 20.7791 145.512 20.272 146.483 19.2579C147.455 18.2235 147.94 16.7936 147.94 14.9683V6.57143H150.095Z" fill="white"/>
<path d="M160.41 22.7262C159.115 22.7262 157.871 22.5437 156.677 22.1786C155.503 21.7932 154.583 21.3166 153.915 20.7487L154.886 19.045C155.554 19.5723 156.394 20.0084 157.405 20.3532C158.417 20.6777 159.469 20.8399 160.562 20.8399C162.019 20.8399 163.091 20.6168 163.779 20.1706C164.487 19.7041 164.841 19.0551 164.841 18.2235C164.841 17.6354 164.649 17.179 164.265 16.8545C163.88 16.5097 163.395 16.2562 162.808 16.0939C162.221 15.9114 161.442 15.739 160.471 15.5767C159.176 15.3333 158.134 15.0899 157.345 14.8466C156.555 14.5829 155.878 14.1468 155.311 13.5384C154.765 12.9299 154.492 12.0882 154.492 11.0132C154.492 9.6746 155.048 8.57937 156.161 7.72751C157.274 6.87566 158.822 6.44974 160.805 6.44974C161.837 6.44974 162.869 6.59171 163.9 6.87566C164.932 7.13933 165.782 7.49427 166.45 7.94047L165.509 9.6746C164.194 8.76191 162.626 8.30556 160.805 8.30556C159.429 8.30556 158.387 8.54894 157.678 9.03572C156.99 9.52249 156.646 10.1614 156.646 10.9524C156.646 11.5608 156.839 12.0476 157.223 12.4127C157.628 12.7778 158.124 13.0516 158.71 13.2341C159.297 13.3964 160.107 13.5688 161.138 13.7513C162.413 13.9947 163.435 14.2381 164.204 14.4815C164.973 14.7249 165.63 15.1407 166.177 15.7288C166.723 16.317 166.996 17.1283 166.996 18.1627C166.996 19.5622 166.409 20.6777 165.236 21.5093C164.083 22.3205 162.474 22.7262 160.41 22.7262Z" fill="white"/>
<path d="M170.98 6.57143H173.135V22.5741H170.98V6.57143ZM172.073 3.07275C171.628 3.07275 171.253 2.92063 170.95 2.6164C170.646 2.31217 170.495 1.94709 170.495 1.52116C170.495 1.11552 170.646 0.760583 170.95 0.456349C171.253 0.152117 171.628 0 172.073 0C172.518 0 172.892 0.152117 173.196 0.456349C173.499 0.7403 173.651 1.0851 173.651 1.49074C173.651 1.93695 173.499 2.31217 173.196 2.6164C172.892 2.92063 172.518 3.07275 172.073 3.07275Z" fill="white"/>
<path d="M185.748 22.7262C184.169 22.7262 182.753 22.3814 181.498 21.6918C180.264 21.0022 179.293 20.0388 178.585 18.8016C177.877 17.5441 177.522 16.1345 177.522 14.5728C177.522 13.011 177.877 11.6116 178.585 10.3743C179.293 9.13713 180.264 8.17372 181.498 7.48413C182.753 6.79453 184.169 6.44974 185.748 6.44974C187.124 6.44974 188.348 6.72354 189.42 7.27116C190.513 7.7985 191.373 8.57937 192 9.61376L190.391 10.709C189.865 9.91799 189.198 9.32981 188.388 8.94444C187.579 8.5388 186.699 8.33598 185.748 8.33598C184.594 8.33598 183.552 8.59965 182.621 9.12698C181.711 9.63404 180.993 10.3642 180.467 11.3175C179.961 12.2707 179.708 13.3558 179.708 14.5728C179.708 15.81 179.961 16.9052 180.467 17.8585C180.993 18.7914 181.711 19.5216 182.621 20.0489C183.552 20.556 184.594 20.8095 185.748 20.8095C186.699 20.8095 187.579 20.6168 188.388 20.2315C189.198 19.8461 189.865 19.2579 190.391 18.4669L192 19.5622C191.373 20.5966 190.513 21.3876 189.42 21.9352C188.328 22.4625 187.103 22.7262 185.748 22.7262Z" fill="white"/>
</svg>
